<svg width="12" height="11" viewBox="0 0 12 11" fill="none" xmlns="http://www.w3.org/2000/svg">
<path d="M8.88126 10.5459H1.71581C1.01911 10.5459 0.45433 9.98113 0.45433 9.28444V5.5C0.45433 4.8033 1.01911 4.23852 1.71581 4.23852H2.9329C3.35468 4.23852 3.74856 4.02773 3.98252 3.67678L5.80357 0.945213C6.00812 0.638382 6.35249 0.454083 6.72125 0.454083C7.40279 0.454083 7.92121 1.06606 7.80917 1.73832L7.63728 2.76966C7.50912 3.53857 8.10207 4.23852 8.88159 4.23852H9.63815C10.4342 4.23852 11.0312 4.9668 10.8751 5.7474L10.1182 9.53183C10.0003 10.1215 9.48258 10.5459 8.88126 10.5459Z" stroke="black" stroke-width="0.9" stroke-linecap="round" stroke-linejoin="round"/>
<path d="M2.97729 4.23852V10.5459" stroke="black" stroke-width="0.9"/>
</svg>
