<svg width="12" height="11" viewBox="0 0 12 11" fill="none" xmlns="http://www.w3.org/2000/svg">
<path d="M2.41635 0.359789L9.7157 0.35979C10.4254 0.35979 11.0008 0.935127 11.0008 1.64484L11.0008 5.5C11.0008 6.20971 10.4254 6.78505 9.7157 6.78505L8.47586 6.78505C8.0462 6.78505 7.64497 6.99979 7.40663 7.35729L5.55155 10.1399C5.34318 10.4525 4.99238 10.6402 4.61672 10.6402C3.92245 10.6402 3.39434 10.0168 3.50848 9.33197L3.68358 8.28137C3.81413 7.49809 3.21009 6.78505 2.41601 6.78505L1.64532 6.78505C0.83439 6.78505 0.226185 6.04316 0.38522 5.24798L1.15625 1.39282C1.27639 0.792157 1.80379 0.359789 2.41635 0.359789Z" stroke="black" stroke-width="0.7" stroke-linecap="round" stroke-linejoin="round"/>
<path d="M8.43065 6.78505L8.43065 0.35979" stroke="black" stroke-width="0.7"/>
</svg>
