<svg width="12" height="11" viewBox="0 0 12 11" fill="none" xmlns="http://www.w3.org/2000/svg">
<path d="M8.94432 10.6402H1.64497C0.935253 10.6402 0.359915 10.0649 0.359915 9.35516V5.5C0.359915 4.79029 0.935253 4.21495 1.64497 4.21495H2.88481C3.31447 4.21495 3.7157 4.00021 3.95404 3.64271L5.80911 0.860098C6.01749 0.547533 6.36829 0.35979 6.74395 0.35979C7.43822 0.35979 7.96633 0.9832 7.85219 1.66803L7.67709 2.71863C7.54654 3.50191 8.15057 4.21495 8.94466 4.21495H9.71535C10.5263 4.21495 11.1345 4.95684 10.9754 5.75202L10.2044 9.60718C10.0843 10.2078 9.55688 10.6402 8.94432 10.6402Z" stroke="black" stroke-width="0.7" stroke-linecap="round" stroke-linejoin="round"/>
<path d="M2.93002 4.21495V10.6402" stroke="black" stroke-width="0.7"/>
</svg>
