<svg preserveAspectRatio="none" width="100%" height="100%" overflow="visible" style="display: block;" viewBox="0 0 17.8044 16.4785" fill="none" xmlns="http://www.w3.org/2000/svg">
<path id="Vector" d="M8.906 4.37293C8.15325 4.37293 7.41059 4.67929 6.79007 5.08619C6.15938 5.49308 5.67122 6.10263 5.37622 6.8147C5.09139 7.42504 5.02023 8.23843 5.16264 8.9505C5.31523 9.76429 5.67129 10.3746 6.21042 10.985C6.73939 11.4936 7.42086 11.7988 8.16344 12.0022C8.90602 12.1039 9.66886 12.003 10.3606 11.7996C11.0625 11.4944 11.6628 10.9854 12.0799 10.375C12.497 9.76469 12.7206 8.95129 12.7206 8.23923C12.7206 7.22199 12.3137 6.30727 11.6016 5.49348C10.8895 4.78141 9.91307 4.47465 8.906 4.37293ZM8.906 10.7823C8.39739 10.7823 7.90922 10.6802 7.49215 10.375C7.07509 10.0699 6.7494 9.66336 6.55613 9.25647C6.36285 8.74785 6.3121 8.23923 6.41382 7.73061C6.50537 7.22199 6.74944 6.8143 7.10547 6.40741C7.46151 6.10223 7.91929 5.79786 8.40757 5.69613C8.90601 5.69613 9.41458 5.69534 9.88251 5.89879C10.3403 6.10223 10.7371 6.4078 11.0219 6.8147C11.2966 7.22159 11.4491 7.73061 11.4491 8.23923C11.4491 8.95129 11.1846 9.56243 10.7065 10.0711C10.2284 10.4779 9.57738 10.7823 8.906 10.7823ZM17.6442 6.61204C17.6238 6.51032 17.583 6.4078 17.5322 6.30608C17.4813 6.30608 17.4101 6.20475 17.3288 6.20475L14.9585 4.78022L14.9483 2.1358C14.9483 2.03408 14.9279 1.93156 14.8974 1.82984C14.8567 1.82984 14.7958 1.72891 14.7246 1.62718C13.8701 0.915117 12.8733 0.406895 11.8052 2.38788e-08C11.7239 2.38788e-08 11.6323 2.38788e-08 11.5509 2.38788e-08C11.4594 2.38788e-08 11.378 -0.000397337 11.2966 0.101326L8.906 1.42453L6.5154 0.101326C6.43402 -0.000397337 6.35264 2.38788e-08 6.26109 2.38788e-08C6.16954 2.38788e-08 6.07797 2.38788e-08 5.9966 2.38788e-08C4.9285 0.406895 3.94191 0.915117 3.08744 1.62718C3.01623 1.72891 2.95527 1.82984 2.91458 1.82984C2.87389 1.93156 2.85349 2.03408 2.85349 2.1358L2.84331 4.78022L0.473065 6.20475C0.391686 6.20475 0.330702 6.30608 0.269667 6.30608C0.218805 6.4078 0.188189 6.51032 0.167844 6.61204C-0.0559481 7.73101 -0.0559481 8.84917 0.167844 9.86641C0.188189 9.96813 0.218805 10.0707 0.269667 10.1724C0.330702 10.1724 0.391686 10.2737 0.473065 10.2737L2.84331 11.6982L2.85349 14.3427C2.85349 14.4444 2.87389 14.5469 2.91458 14.6486C2.95527 14.6486 3.00605 14.7495 3.07725 14.8513C3.9419 15.5633 4.9285 16.0716 5.9966 16.4785C6.07797 16.4785 6.16954 16.4785 6.26109 16.4785C6.35264 16.4785 6.43402 16.4789 6.5154 16.3771L8.906 15.0539L11.2966 16.3771C11.3983 16.4789 11.4999 16.4785 11.6118 16.4785C11.683 16.4785 11.7442 16.4785 11.8154 16.4785C12.8835 16.0716 13.8701 15.5633 14.7246 14.8513C14.7958 14.7495 14.8567 14.6486 14.8974 14.6486C14.9279 14.5469 14.9483 14.4444 14.9483 14.3427L14.9687 11.6982L17.3389 10.2737C17.4102 10.2737 17.4813 10.1724 17.5322 10.1724C17.5932 10.0707 17.6238 9.96813 17.6442 9.86641C17.8578 8.74745 17.8578 7.62928 17.6442 6.61204ZM16.4538 9.35779L14.1752 10.681C14.0837 10.681 14.0023 10.7819 13.9413 10.8836C13.8904 10.9854 13.8498 11.0883 13.799 11.0883C13.7379 11.19 13.6972 11.3919 13.6972 11.4936L13.687 14.0367C13.0766 14.5453 12.3951 14.8521 11.6729 15.1572L9.38408 13.9354C9.28235 13.8336 9.18057 13.834 9.06867 13.834H9.05849C8.95677 13.834 8.86542 13.834 8.7637 13.834C8.6518 13.834 8.53984 13.8336 8.43811 13.9354L6.14933 15.1572C5.41692 14.8521 4.73538 14.5453 4.12504 14.0367L4.11485 11.4936C4.11485 11.3919 4.08425 11.2913 4.02321 11.1896C3.97235 11.0879 3.9216 10.9854 3.88091 10.8836C3.81988 10.7819 3.73851 10.681 3.63678 10.681L1.36836 9.35779C1.24629 8.64573 1.24629 7.83273 1.36836 7.12066L3.63678 5.79746C3.73851 5.79746 3.81987 5.69653 3.87073 5.59481C3.92159 5.49308 3.96217 5.39017 4.01303 5.39017C4.08424 5.28844 4.11485 5.08659 4.11485 4.98486L4.12504 2.44177C4.73538 1.93315 5.41691 1.62639 6.13915 1.32122L8.42793 2.54309C8.52966 2.64482 8.64162 2.64442 8.75352 2.64442C8.85524 2.64442 8.94658 2.64442 9.04831 2.64442C9.1602 2.64442 9.27217 2.64482 9.37389 2.54309L11.6627 1.32122C12.3849 1.62639 13.0665 1.93315 13.687 2.44177V4.98486C13.6971 5.08659 13.7278 5.18712 13.7888 5.28884C13.8397 5.39056 13.8904 5.49308 13.9311 5.59481C13.9921 5.69653 14.0735 5.79746 14.1752 5.79746L16.4436 7.12066C16.5657 7.83273 16.5657 8.64573 16.4436 9.35779H16.4538Z" fill="var(--fill-0, black)"/>
</svg>
