<svg preserveAspectRatio="none" width="100%" height="100%" overflow="visible" style="display: block;" viewBox="0 0 15.2586 16.4785" fill="none" xmlns="http://www.w3.org/2000/svg">
<path id="Vector" d="M7.62928 0C3.34671 0 0 1.93156 0 4.37293V12.1055C0 14.5469 3.34671 16.4785 7.62928 16.4785C11.9119 16.4785 15.2586 14.5469 15.2586 12.1055V4.37293C15.2586 1.93156 11.9119 0 7.62928 0ZM13.987 8.23923C13.987 9.05302 13.3564 9.76469 12.2679 10.375C11.0371 11.0871 9.3891 11.3923 7.62928 11.3923C5.86946 11.3923 4.22148 11.0871 2.99062 10.375C1.90217 9.76469 1.27155 9.05302 1.27155 8.23923V6.91602C2.62447 8.13671 4.94377 8.84917 7.62928 8.84917C10.3148 8.84917 12.6341 8.13671 13.987 6.91602V8.23923ZM2.99062 2.23713C4.22148 1.62679 5.86946 1.21989 7.62928 1.21989C9.3891 1.21989 11.0371 1.62679 12.2679 2.23713C13.3564 2.84747 13.987 3.66086 13.987 4.37293C13.987 5.18672 13.3564 6.0017 12.2679 6.61204C11.0371 7.22239 9.3891 7.62928 7.62928 7.62928C5.86946 7.62928 4.22148 7.22239 2.99062 6.61204C1.90217 6.0017 1.27155 5.18672 1.27155 4.37293C1.27155 3.66086 1.90217 2.84747 2.99062 2.23713ZM12.2679 14.2413C11.0371 14.8517 9.3891 15.2586 7.62928 15.2586C5.86946 15.2586 4.22148 14.8517 2.99062 14.2413C1.90217 13.631 1.27155 12.8176 1.27155 12.1055V10.7823C2.62447 11.9013 4.94377 12.7155 7.62928 12.7155C10.3148 12.7155 12.6341 11.9013 13.987 10.7823V12.1055C13.987 12.8176 13.3564 13.631 12.2679 14.2413Z" fill="var(--fill-0, black)"/>
</svg>
