<svg width="48" height="48" viewBox="0 0 48 48" fill="none" xmlns="http://www.w3.org/2000/svg">
<path d="M19 6L20.1523 5.03972C19.8673 4.69773 19.4452 4.5 19 4.5V6ZM24 12L22.8477 12.9603C23.1327 13.3023 23.5548 13.5 24 13.5V12ZM6.5 16C6.5 15.1716 5.82843 14.5 5 14.5C4.17157 14.5 3.5 15.1716 3.5 16H5H6.5ZM3.5 28C3.5 28.8284 4.17157 29.5 5 29.5C5.82843 29.5 6.5 28.8284 6.5 28H5H3.5ZM44.5 16C44.5 15.1716 43.8284 14.5 43 14.5C42.1716 14.5 41.5 15.1716 41.5 16H43H44.5ZM41.5 28C41.5 28.8284 42.1716 29.5 43 29.5C43.8284 29.5 44.5 28.8284 44.5 28H43H41.5ZM5 8H6.5C6.5 7.72386 6.72386 7.5 7 7.5V6V4.5C5.067 4.5 3.5 6.067 3.5 8H5ZM7 6V7.5H19V6V4.5H7V6ZM19 6L17.8477 6.96028L22.8477 12.9603L24 12L25.1523 11.0397L20.1523 5.03972L19 6ZM24 12V13.5H41V12V10.5H24V12ZM41 12V13.5C41.2762 13.5 41.5 13.7238 41.5 14H43H44.5C44.5 12.067 42.933 10.5 41 10.5V12ZM43 14H41.5V40H43H44.5V14H43ZM43 40H41.5C41.5 40.2762 41.2762 40.5 41 40.5V42V43.5C42.933 43.5 44.5 41.933 44.5 40H43ZM41 42V40.5H7V42V43.5H41V42ZM7 42V40.5C6.72384 40.5 6.5 40.2762 6.5 40H5H3.5C3.5 41.933 5.06702 43.5 7 43.5V42ZM5 40H6.5V8H5H3.5V40H5ZM43 22V20.5H5V22V23.5H43V22ZM5 16H3.5V28H5H6.5V16H5ZM43 16H41.5V28H43H44.5V16H43Z" fill="black" style="fill:black;fill-opacity:1;"/>
</svg>
