<svg width="48" height="48" viewBox="0 0 48 48" fill="none" xmlns="http://www.w3.org/2000/svg">
<path d="M23 41.5C23.8284 41.5 24.5 40.8284 24.5 40C24.5 39.1716 23.8284 38.5 23 38.5V40V41.5ZM42.5 25.8824C42.5 26.7108 43.1716 27.3824 44 27.3824C44.8284 27.3824 45.5 26.7108 45.5 25.8824H44H42.5ZM35.0607 34.0607C35.6464 33.4749 35.6464 32.5251 35.0607 31.9393C34.4749 31.3536 33.5251 31.3536 32.9393 31.9393L34 33L35.0607 34.0607ZM30 37L28.9393 35.9393C28.3536 36.5251 28.3536 37.4749 28.9393 38.0607L30 37ZM32.9393 42.0607C33.5251 42.6464 34.4749 42.6464 35.0607 42.0607C35.6464 41.4749 35.6464 40.5251 35.0607 39.9393L34 41L32.9393 42.0607ZM41.0607 31.9393C40.4749 31.3536 39.5251 31.3536 38.9393 31.9393C38.3536 32.5251 38.3536 33.4749 38.9393 34.0607L40 33L41.0607 31.9393ZM44 37L45.0607 38.0607C45.6464 37.4749 45.6464 36.5251 45.0607 35.9393L44 37ZM38.9393 39.9393C38.3536 40.5251 38.3536 41.4749 38.9393 42.0607C39.5251 42.6464 40.4749 42.6464 41.0607 42.0607L40 41L38.9393 39.9393ZM23 40V38.5H7V40V41.5H23V40ZM7 40V38.5C6.17156 38.5 5.5 37.8285 5.5 37H4H2.5C2.5 39.4853 4.51474 41.5 7 41.5V40ZM4 37H5.5V11H4H2.5V37H4ZM4 11H5.5C5.5 10.1716 6.17158 9.5 7 9.5V8V6.5C4.51472 6.5 2.5 8.51472 2.5 11H4ZM7 8V9.5H41V8V6.5H7V8ZM41 8V9.5C41.8285 9.5 42.5 10.1716 42.5 11H44H45.5C45.5 8.51474 43.4853 6.5 41 6.5V8ZM44 11H42.5V25.8824H44H45.5V11H44ZM44 20V18.5H4V20V21.5H44V20ZM34 33L32.9393 31.9393L28.9393 35.9393L30 37L31.0607 38.0607L35.0607 34.0607L34 33ZM30 37L28.9393 38.0607L32.9393 42.0607L34 41L35.0607 39.9393L31.0607 35.9393L30 37ZM40 33L38.9393 34.0607L42.9393 38.0607L44 37L45.0607 35.9393L41.0607 31.9393L40 33ZM44 37L42.9393 35.9393L38.9393 39.9393L40 41L41.0607 42.0607L45.0607 38.0607L44 37Z" fill="black" style="fill:black;fill-opacity:1;"/>
<path d="M10 12C8.89543 12 8 12.8954 8 14C8 15.1046 8.89543 16 10 16C11.1046 16 12 15.1046 12 14C12 12.8954 11.1046 12 10 12Z" fill="black" style="fill:black;fill-opacity:1;"/>
<path d="M16 12C14.8954 12 14 12.8954 14 14C14 15.1046 14.8954 16 16 16C17.1046 16 18 15.1046 18 14C18 12.8954 17.1046 12 16 12Z" fill="black" style="fill:black;fill-opacity:1;"/>
</svg>
