<svg width="77" height="89" viewBox="0 0 77 89" fill="none" xmlns="http://www.w3.org/2000/svg">
<path d="M38.2805 86.6718L38.5019 44.3262" stroke="black" stroke-width="3.49928" stroke-miterlimit="5.01585" stroke-linecap="round" stroke-linejoin="round"/>
<path d="M1.76181 65.4621L16.6775 56.4634L1.78529 23.0022" stroke="black" stroke-width="3.49928" stroke-miterlimit="5.01585" stroke-linecap="round" stroke-linejoin="round"/>
<path d="M1.7523 65.4612L38.4884 86.6707L75.2479 65.4205" stroke="black" stroke-width="3.49928" stroke-miterlimit="5.01585" stroke-linecap="round" stroke-linejoin="round"/>
<path d="M75.2186 22.9615L60.4096 56.4634L75.1951 65.4213" stroke="black" stroke-width="3.49928" stroke-miterlimit="5.01585" stroke-linecap="round" stroke-linejoin="round"/>
<path d="M1.75225 23.0022L38.5118 1.75197L75.2479 22.9616" stroke="black" stroke-width="3.49928" stroke-miterlimit="5.01585" stroke-linecap="round" stroke-linejoin="round"/>
<path d="M1.75225 23.0022L38.6862 44.3261L75.2479 22.9616" stroke="black" stroke-width="3.49928" stroke-miterlimit="5.01585" stroke-linecap="round" stroke-linejoin="round"/>
<path d="M38.5278 69.5338L16.589 56.8674L16.589 31.5346" stroke="black" stroke-width="3.49928" stroke-miterlimit="5.01585" stroke-linecap="round" stroke-linejoin="round"/>
<path d="M38.4687 69.5339L60.4075 56.8675L60.4075 31.5347" stroke="black" stroke-width="3.49928" stroke-miterlimit="5.01585" stroke-linecap="round" stroke-linejoin="round"/>
<path d="M16.5572 31.535L38.496 18.8686L60.4349 31.535" stroke="black" stroke-width="3.49928" stroke-miterlimit="5.01585" stroke-linecap="round" stroke-linejoin="round"/>
<path d="M16.5572 31.535L38.6142 44.2696L60.4349 31.535" stroke="black" stroke-width="3.49928" stroke-miterlimit="5.01585" stroke-linecap="round" stroke-linejoin="round"/>
<path d="M38.3641 69.5338L38.4823 44.2692" stroke="black" stroke-width="3.49928" stroke-miterlimit="5.01585" stroke-linecap="round" stroke-linejoin="round"/>
</svg>
