<svg width="104" height="14" viewBox="0 0 104 14" fill="none" xmlns="http://www.w3.org/2000/svg">
<path d="M0.585589 8.75382L0.585589 4.67438C0.58559 2.42137 2.41202 0.594947 4.66503 0.594947C6.91804 0.594947 8.74446 2.42137 8.74446 4.67438V10.1136C8.74446 11.6156 7.52685 12.8333 6.02484 12.8333C4.52283 12.8333 3.30521 11.6156 3.30521 10.1136V4.67438C3.30521 3.92338 3.91402 3.31457 4.66503 3.31457C5.41603 3.31457 6.02484 3.92338 6.02484 4.67438L6.02484 10.1136" stroke="#575757" stroke-width="1.16071" stroke-linecap="round" stroke-linejoin="round"/>
<path d="M35.0366 4.26644L37.4843 6.7141M28.9175 12.8333V9.77368L38.0962 0.594947L41.1558 3.65452L31.9771 12.8333H28.9175Z" stroke="#575757" stroke-width="1.16071" stroke-linecap="round" stroke-linejoin="round"/>
<path d="M68.0212 12.4455L71.5826 10.4548C71.9627 10.2423 72.1525 10.136 72.2907 9.98734C72.413 9.85581 72.5055 9.70089 72.562 9.53256C72.6257 9.34277 72.6257 9.13067 72.6257 8.70765V4.72043C72.6257 4.2974 72.6257 4.08533 72.562 3.89554C72.5055 3.72721 72.413 3.57216 72.2907 3.44063C72.1531 3.29262 71.9638 3.18681 71.5869 2.97614L68.0206 0.982682C67.6404 0.770173 67.4507 0.664134 67.2486 0.622545C67.0698 0.585748 66.8849 0.585748 66.7061 0.622545C66.504 0.664134 66.3137 0.770173 65.9335 0.982682L62.3715 2.97376C61.9917 3.18602 61.802 3.29207 61.6638 3.44063C61.5415 3.57216 61.4491 3.72721 61.3926 3.89554C61.3288 4.08578 61.3288 4.2984 61.3288 4.72342V8.70483C61.3288 9.12985 61.3288 9.34232 61.3926 9.53256C61.4491 9.70089 61.5415 9.85581 61.6638 9.98734C61.8021 10.136 61.9919 10.2423 62.3721 10.4548L65.9335 12.4455C66.3137 12.658 66.504 12.7641 66.7061 12.8057C66.8849 12.8425 67.0698 12.8425 67.2486 12.8057C67.4507 12.7641 67.641 12.658 68.0212 12.4455Z" stroke="#D0D0D0" stroke-width="1.16071" stroke-linecap="round" stroke-linejoin="round"/>
<path d="M65.0205 6.71404C65.0205 7.7603 65.8966 8.60846 66.9773 8.60846C68.0579 8.60846 68.934 7.7603 68.934 6.71404C68.934 5.66778 68.0579 4.81962 66.9773 4.81962C65.8966 4.81962 65.0205 5.66778 65.0205 6.71404Z" stroke="#D0D0D0" stroke-width="1.16071" stroke-linecap="round" stroke-linejoin="round"/>
<path d="M98.1067 0.585343L103.414 3.64978V8.69714C103.414 9.36638 103.057 9.98478 102.478 10.3194L99.0433 12.3023C98.4637 12.6369 97.7497 12.6369 97.1701 12.3023L93.7355 10.3194C93.156 9.98478 92.7989 9.36638 92.7989 8.69714V3.64978L98.1067 0.585343Z" stroke="#D0D0D0" stroke-width="1.16071" stroke-linecap="round" stroke-linejoin="round"/>
<path d="M98.1068 3.30915V6.71407L95.158 8.41654" stroke="#D0D0D0" stroke-width="1.16071" stroke-linecap="round" stroke-linejoin="round"/>
<path d="M98.107 6.71433L101.056 8.4168" stroke="#D0D0D0" stroke-width="1.16071" stroke-linecap="round" stroke-linejoin="round"/>
</svg>
