<svg preserveAspectRatio="xMidYMid meet" width="100%" height="100%" viewBox="0 0 153 153" fill="none" xmlns="http://www.w3.org/2000/svg">
<g id="Frame 36743">
<path id="Vector" d="M55.7612 108.298C80.3557 106.901 99.8778 86.0638 99.8778 60.562C99.8778 34.1562 78.9465 12.75 53.1264 12.75C27.3063 12.75 6.375 34.1562 6.375 60.562C6.375 69.9707 9.03155 78.7442 13.6206 86.1412L10.3166 96.278L10.3113 96.2929C9.04588 100.175 8.41286 102.118 8.86361 103.41C9.25639 104.537 10.1282 105.425 11.2297 105.826C12.4895 106.286 14.3753 105.643 18.1462 104.357L18.1998 104.341L28.1147 100.962C35.3476 105.655 43.9269 108.373 53.1269 108.373C54.0109 108.373 54.8892 108.348 55.7612 108.298ZM55.7612 108.298C55.7618 108.3 55.7605 108.296 55.7612 108.298ZM55.7612 108.298C62.1578 126.908 79.4949 140.25 99.8789 140.25C109.079 140.25 117.656 137.53 124.889 132.837L134.801 136.216L134.821 136.219C138.617 137.513 140.519 138.162 141.783 137.701C142.884 137.299 143.745 136.411 144.138 135.285C144.589 133.99 143.958 132.046 142.689 128.153L139.385 118.016L140.492 116.14C144.399 109.155 146.625 101.061 146.625 92.4367C146.625 66.0309 125.698 44.6247 99.8778 44.6247L98.1277 44.6577L97.245 44.7018" stroke="#000000" stroke-width="9.5625" stroke-linecap="round" stroke-linejoin="round"/>
</g>
</svg>
