<svg xmlns="http://www.w3.org/2000/svg" width="24" height="24" viewBox="0 0 24 24" fill="none" stroke="currentColor" stroke-width="1.4" stroke-linecap="round" stroke-linejoin="round" aria-hidden="true">
  <!-- Figma UI-design 751:388 — права бульбашка (ззаду), хвостик внизу справа -->
  <path d="M14 7h4c1.1 0 2 .9 2 2v4c0 1.1-.9 2-2 2h-1.5l-1.25 2.25-1.25-2.25H14c-1.1 0-2-.9-2-2V9c0-1.1.9-2 2-2z"/>
  <!-- Ліва бульбашка (спереду), хвостик внизу зліва -->
  <path d="M5 5h4.5c1.1 0 2 .9 2 2v4.5c0 1.1-.9 2-2 2H8.25L7 14.5 5.75 12H5c-1.1 0-2-.9-2-2V7c0-1.1.9-2 2-2z"/>
</svg>
