<svg preserveAspectRatio="none" width="100%" height="100%" overflow="visible" style="display: block;" viewBox="0 0 450.615 434.003" fill="none" xmlns="http://www.w3.org/2000/svg">
<g id="logo">
<path id="out cube" d="M224.444 390.636L225.35 217.469" stroke="var(--stroke-0, black)" stroke-width="20" stroke-miterlimit="5.01585" stroke-linecap="round" stroke-linejoin="round"/>
<path id="out cube_2" d="M75.1138 303.902L136.11 267.103L75.2098 130.268" stroke="var(--stroke-0, black)" stroke-width="20" stroke-miterlimit="5.01585" stroke-linecap="round" stroke-linejoin="round"/>
<path id="out cube_3" d="M75.0655 303.902L225.293 390.636L375.616 303.735" stroke="var(--stroke-0, black)" stroke-width="20" stroke-miterlimit="5.01585" stroke-linecap="round" stroke-linejoin="round"/>
<path id="out cube_4" d="M375.502 130.101L314.942 267.102L375.405 303.735" stroke="var(--stroke-0, black)" stroke-width="20" stroke-miterlimit="5.01585" stroke-linecap="round" stroke-linejoin="round"/>
<path id="out cube_5" d="M75.0653 130.267L225.389 43.3669L375.616 130.101" stroke="var(--stroke-0, black)" stroke-width="20" stroke-miterlimit="5.01585" stroke-linecap="round" stroke-linejoin="round"/>
<path id="out cube_6" d="M75.0653 130.267L226.102 217.468L375.616 130.101" stroke="var(--stroke-0, black)" stroke-width="20" stroke-miterlimit="5.01585" stroke-linecap="round" stroke-linejoin="round"/>
<path id="inside cube" d="M225.458 320.552L135.742 268.754L135.742 165.159" stroke="var(--stroke-0, black)" stroke-width="20" stroke-miterlimit="5.01585" stroke-linecap="round" stroke-linejoin="round"/>
<path id="inside cube_2" d="M225.221 320.554L314.937 268.756L314.937 165.161" stroke="var(--stroke-0, black)" stroke-width="20" stroke-miterlimit="5.01585" stroke-linecap="round" stroke-linejoin="round"/>
<path id="inside cube_3" d="M135.613 165.159L225.329 113.361L315.045 165.159" stroke="var(--stroke-0, black)" stroke-width="20" stroke-miterlimit="5.01585" stroke-linecap="round" stroke-linejoin="round"/>
<path id="inside cube_4" d="M135.613 165.159L225.812 217.236L315.045 165.159" stroke="var(--stroke-0, black)" stroke-width="20" stroke-miterlimit="5.01585" stroke-linecap="round" stroke-linejoin="round"/>
<path id="inside cube_5" d="M224.788 320.552L225.271 217.236" stroke="var(--stroke-0, black)" stroke-width="20" stroke-miterlimit="5.01585" stroke-linecap="round" stroke-linejoin="round"/>
</g>
</svg>
