<svg width="30" height="35" viewBox="0 0 30 35" fill="none" xmlns="http://www.w3.org/2000/svg">
<path d="M14.9157 33.5566L15.001 17.2442" stroke="black" stroke-width="1.67" stroke-miterlimit="5.01585" stroke-linecap="round" stroke-linejoin="round"/>
<path d="M0.847794 25.3862L6.5936 21.9198L0.856838 9.02991" stroke="black" stroke-width="1.67" stroke-miterlimit="5.01585" stroke-linecap="round" stroke-linejoin="round"/>
<path d="M0.844222 25.3862L14.9957 33.5565L29.1561 25.3705" stroke="black" stroke-width="1.67" stroke-miterlimit="5.01585" stroke-linecap="round" stroke-linejoin="round"/>
<path d="M29.1448 9.01415L23.4401 21.9197L29.1357 25.3705" stroke="black" stroke-width="1.67" stroke-miterlimit="5.01585" stroke-linecap="round" stroke-linejoin="round"/>
<path d="M0.844203 9.02983L15.0047 0.843826L29.1561 9.01416" stroke="black" stroke-width="1.67" stroke-miterlimit="5.01585" stroke-linecap="round" stroke-linejoin="round"/>
<path d="M0.844203 9.02983L15.0719 17.2442L29.1561 9.01416" stroke="black" stroke-width="1.67" stroke-miterlimit="5.01585" stroke-linecap="round" stroke-linejoin="round"/>
<path d="M15.0108 26.9549L6.55949 22.0756L6.55949 12.3169" stroke="black" stroke-width="1.67" stroke-miterlimit="5.01585" stroke-linecap="round" stroke-linejoin="round"/>
<path d="M14.9879 26.9548L23.4391 22.0755L23.4392 12.3168" stroke="black" stroke-width="1.67" stroke-miterlimit="5.01585" stroke-linecap="round" stroke-linejoin="round"/>
<path d="M6.5473 12.3169L14.9986 7.43753L23.4499 12.3169" stroke="black" stroke-width="1.67" stroke-miterlimit="5.01585" stroke-linecap="round" stroke-linejoin="round"/>
<path d="M6.5473 12.3169L15.0441 17.2225L23.4499 12.3169" stroke="black" stroke-width="1.67" stroke-miterlimit="5.01585" stroke-linecap="round" stroke-linejoin="round"/>
<path d="M14.9476 26.9549L14.9931 17.2225" stroke="black" stroke-width="1.67" stroke-miterlimit="5.01585" stroke-linecap="round" stroke-linejoin="round"/>
</svg>
