<svg width="451" height="434" viewBox="0 0 451 434" fill="none" xmlns="http://www.w3.org/2000/svg">
<path d="M224.444 390.636L225.35 217.469" stroke="black" stroke-width="17.9175" stroke-miterlimit="5.01585" stroke-linecap="round" stroke-linejoin="round"/>
<path d="M75.1144 303.902L136.11 267.104L75.2104 130.268" stroke="black" stroke-width="17.9175" stroke-miterlimit="5.01585" stroke-linecap="round" stroke-linejoin="round"/>
<path d="M75.0662 303.902L225.294 390.636L375.617 303.735" stroke="black" stroke-width="17.9175" stroke-miterlimit="5.01585" stroke-linecap="round" stroke-linejoin="round"/>
<path d="M375.502 130.101L314.942 267.102L375.405 303.735" stroke="black" stroke-width="17.9175" stroke-miterlimit="5.01585" stroke-linecap="round" stroke-linejoin="round"/>
<path d="M75.066 130.267L225.39 43.3669L375.617 130.101" stroke="black" stroke-width="17.9175" stroke-miterlimit="5.01585" stroke-linecap="round" stroke-linejoin="round"/>
<path d="M75.066 130.267L226.103 217.468L375.617 130.101" stroke="black" stroke-width="17.9175" stroke-miterlimit="5.01585" stroke-linecap="round" stroke-linejoin="round"/>
<path d="M225.459 320.552L135.743 268.754L135.743 165.159" stroke="black" stroke-width="17.9175" stroke-miterlimit="5.01585" stroke-linecap="round" stroke-linejoin="round"/>
<path d="M225.222 320.554L314.938 268.756L314.938 165.161" stroke="black" stroke-width="17.9175" stroke-miterlimit="5.01585" stroke-linecap="round" stroke-linejoin="round"/>
<path d="M135.613 165.159L225.33 113.361L315.046 165.159" stroke="black" stroke-width="17.9175" stroke-miterlimit="5.01585" stroke-linecap="round" stroke-linejoin="round"/>
<path d="M135.613 165.159L225.813 217.236L315.046 165.159" stroke="black" stroke-width="17.9175" stroke-miterlimit="5.01585" stroke-linecap="round" stroke-linejoin="round"/>
<path d="M224.788 320.552L225.272 217.236" stroke="black" stroke-width="17.9175" stroke-miterlimit="5.01585" stroke-linecap="round" stroke-linejoin="round"/>
</svg>
