<svg width="37" height="37" viewBox="0 0 37 37" fill="none" xmlns="http://www.w3.org/2000/svg">
<rect x="0.37" y="0.37" width="36.26" height="36.26" rx="8.63" fill="#2A2A2A"/>
<rect x="0.37" y="0.37" width="36.26" height="36.26" rx="8.63" stroke="#9A9A9A" stroke-width="0.74"/>
<path d="M24.8618 13.2114L24.8618 22.2812C24.8618 22.4222 24.8341 22.5618 24.7801 22.692C24.7262 22.8222 24.6471 22.9405 24.5475 23.0402C24.4478 23.1398 24.3295 23.2189 24.1993 23.2728C24.0691 23.3268 23.9295 23.3545 23.7886 23.3545C23.6476 23.3545 23.5081 23.3268 23.3779 23.2728C23.2476 23.2189 23.1293 23.1398 23.0297 23.0402C22.93 22.9405 22.8509 22.8222 22.797 22.692C22.7431 22.5618 22.7153 22.4222 22.7153 22.2812L22.7229 15.7888L13.9629 24.5487C13.7625 24.7492 13.4906 24.8618 13.2071 24.8618C12.9236 24.8618 12.6517 24.7492 12.4513 24.5487C12.2508 24.3482 12.1382 24.0764 12.1382 23.7929C12.1382 23.5094 12.2508 23.2375 12.4513 23.0371L21.2112 14.2771L14.7187 14.2847C14.4341 14.2847 14.1611 14.1716 13.9598 13.9703C13.7586 13.7691 13.6455 13.4961 13.6455 13.2114C13.6455 12.9268 13.7586 12.6538 13.9598 12.4525C14.1611 12.2512 14.4341 12.1382 14.7187 12.1382L23.7886 12.1382C23.9297 12.1376 24.0695 12.165 24.2 12.2187C24.3305 12.2724 24.449 12.3514 24.5488 12.4512C24.6485 12.551 24.7276 12.6695 24.7813 12.8C24.835 12.9305 24.8624 13.0703 24.8618 13.2114Z" fill="white"/>
</svg>
