<svg width="20" height="20" viewBox="0 0 20 20" fill="none" xmlns="http://www.w3.org/2000/svg">
<path d="M11.6665 2.72425C11.6665 2.14008 11.1932 1.66675 10.609 1.66675H9.3915C8.8065 1.66675 8.33317 2.14008 8.33317 2.72425C8.33317 3.20591 8.00317 3.61925 7.554 3.79591C7.48317 3.82425 7.41234 3.85425 7.34317 3.88425C6.90067 4.07591 6.37484 4.01758 6.03317 3.67675C5.83487 3.47859 5.56601 3.36728 5.28567 3.36728C5.00533 3.36728 4.73647 3.47859 4.53817 3.67675L3.6765 4.53841C3.47835 4.73671 3.36703 5.00558 3.36703 5.28591C3.36703 5.56625 3.47835 5.83512 3.6765 6.03341C4.01817 6.37508 4.0765 6.90008 3.88317 7.34341C3.85279 7.41318 3.82362 7.48347 3.79567 7.55425C3.619 8.00341 3.20567 8.33341 2.724 8.33341C2.13984 8.33341 1.6665 8.80675 1.6665 9.39091V10.6092C1.6665 11.1934 2.13984 11.6667 2.724 11.6667C3.20567 11.6667 3.619 11.9967 3.79567 12.4459C3.824 12.5167 3.854 12.5876 3.88317 12.6567C4.07567 13.0992 4.01734 13.6251 3.6765 13.9667C3.47835 14.165 3.36703 14.4339 3.36703 14.7142C3.36703 14.9946 3.47835 15.2635 3.6765 15.4617L4.53817 16.3234C4.73647 16.5216 5.00533 16.6329 5.28567 16.6329C5.56601 16.6329 5.83487 16.5216 6.03317 16.3234C6.37484 15.9817 6.89984 15.9234 7.34317 16.1159C7.41234 16.1467 7.48317 16.1759 7.554 16.2042C8.00317 16.3809 8.33317 16.7942 8.33317 17.2759C8.33317 17.8601 8.8065 18.3334 9.39067 18.3334H10.609C11.1932 18.3334 11.6665 17.8601 11.6665 17.2759C11.6665 16.7942 11.9965 16.3809 12.4457 16.2034C12.5165 16.1759 12.5873 16.1467 12.6565 16.1167C13.099 15.9234 13.6248 15.9826 13.9657 16.3234C14.0639 16.4217 14.1805 16.4996 14.3088 16.5528C14.4371 16.6059 14.5747 16.6333 14.7136 16.6333C14.8525 16.6333 14.99 16.6059 15.1184 16.5528C15.2467 16.4996 15.3633 16.4217 15.4615 16.3234L16.3232 15.4617C16.5213 15.2635 16.6326 14.9946 16.6326 14.7142C16.6326 14.4339 16.5213 14.165 16.3232 13.9667C15.9815 13.6251 15.9232 13.1001 16.1157 12.6567C16.1465 12.5876 16.1757 12.5167 16.204 12.4459C16.3807 11.9967 16.794 11.6667 17.2757 11.6667C17.8598 11.6667 18.3332 11.1934 18.3332 10.6092V9.39175C18.3332 8.80758 17.8598 8.33425 17.2757 8.33425C16.794 8.33425 16.3807 8.00425 16.2032 7.55508C16.1752 7.48429 16.1461 7.414 16.1157 7.34425C15.924 6.90175 15.9823 6.37591 16.3232 6.03425C16.5213 5.83595 16.6326 5.56708 16.6326 5.28675C16.6326 5.00641 16.5213 4.73755 16.3232 4.53925L15.4615 3.67758C15.2632 3.47942 14.9943 3.36811 14.714 3.36811C14.4337 3.36811 14.1648 3.47942 13.9665 3.67758C13.6248 4.01925 13.0998 4.07758 12.6565 3.88508C12.5867 3.85442 12.5165 3.82497 12.4457 3.79675C11.9965 3.61925 11.6665 3.20508 11.6665 2.72425Z" stroke="black" stroke-width="1.25" stroke-linecap="round" stroke-linejoin="round"/>
<path d="M13.3332 10.0001C13.3332 10.8841 12.982 11.732 12.3569 12.3571C11.7317 12.9822 10.8839 13.3334 9.99984 13.3334C9.11578 13.3334 8.26794 12.9822 7.64281 12.3571C7.01769 11.732 6.6665 10.8841 6.6665 10.0001C6.6665 9.11603 7.01769 8.26818 7.64281 7.64306C8.26794 7.01794 9.11578 6.66675 9.99984 6.66675C10.8839 6.66675 11.7317 7.01794 12.3569 7.64306C12.982 8.26818 13.3332 9.11603 13.3332 10.0001Z" stroke="black" stroke-width="1.25" stroke-linecap="round" stroke-linejoin="round"/>
</svg>
