<svg width="12" height="17" viewBox="0 0 12 17" fill="none" xmlns="http://www.w3.org/2000/svg">
<path d="M3.26919 16.3462H8.49986M5.88452 0.653846C2.9957 0.653846 0.653846 2.99574 0.653846 5.88462C0.653846 6.94341 0.968422 7.92873 1.50921 8.75221C2.3408 10.0185 2.75624 10.6513 2.81021 10.7458C3.29035 11.587 3.20195 11.2903 3.26237 12.2571C3.26917 12.3657 3.26919 12.5302 3.26919 12.859C3.26919 13.3405 3.65949 13.7308 4.14096 13.7308L7.62808 13.7308C8.10955 13.7308 8.49986 13.3405 8.49986 12.859C8.49986 12.5302 8.49986 12.3657 8.50666 12.2571C8.56708 11.2903 8.47817 11.587 8.95831 10.7458C9.01229 10.6513 9.42843 10.0185 10.26 8.75221C10.8008 7.92873 11.1154 6.94341 11.1154 5.88462C11.1154 2.99574 8.77335 0.653846 5.88452 0.653846Z" stroke="black" stroke-width="1.25" stroke-linecap="round" stroke-linejoin="round"/>
</svg>
